<svg width="28" height="28" viewBox="0 0 28 28" fill="none" xmlns="http://www.w3.org/2000/svg">
<path d="M19.8331 2.33313C21.3789 2.33774 22.8601 2.95385 23.9531 4.04689C25.0462 5.13993 25.6623 6.62109 25.6669 8.16687V19.8331C25.6623 21.3789 25.0462 22.8601 23.9531 23.9531C22.8601 25.0462 21.3789 25.6623 19.8331 25.6669H8.16687C6.62109 25.6623 5.13993 25.0462 4.04689 23.9531C2.95385 22.8601 2.33774 21.3789 2.33313 19.8331V8.16687C2.33774 6.62109 2.95385 5.13993 4.04689 4.04689C5.13993 2.95385 6.62109 2.33774 8.16687 2.33313H19.8331ZM19.8331 0H8.16687C3.675 0 0 3.675 0 8.16687V19.8331C0 24.325 3.675 28 8.16687 28H19.8331C24.325 28 28 24.325 28 19.8331V8.16687C28 3.675 24.325 0 19.8331 0Z" fill="#F0A500"/>
<path d="M21.5831 6.96687C21.237 6.96687 20.8987 6.86424 20.6109 6.67194C20.3231 6.47965 20.0988 6.20634 19.9663 5.88657C19.8339 5.5668 19.7992 5.21493 19.8668 4.87546C19.9343 4.536 20.1009 4.22418 20.3457 3.97944C20.5904 3.73469 20.9023 3.56802 21.2417 3.5005C21.5812 3.43297 21.9331 3.46763 22.2528 3.60008C22.5726 3.73254 22.8459 3.95684 23.0382 4.24462C23.2305 4.53241 23.3331 4.87075 23.3331 5.21687C23.3336 5.44682 23.2887 5.67461 23.2009 5.88715C23.1131 6.0997 22.9843 6.29281 22.8217 6.45541C22.6591 6.61801 22.4659 6.7469 22.2534 6.83467C22.0409 6.92244 21.8131 6.96737 21.5831 6.96687ZM14 8.13312C14.923 8.13312 15.8253 8.40683 16.5928 8.91963C17.3602 9.43244 17.9584 10.1613 18.3116 11.0141C18.6649 11.8668 18.7573 12.8052 18.5772 13.7105C18.3971 14.6157 17.9527 15.4473 17.3 16.1C16.6473 16.7527 15.8157 17.1971 14.9105 17.3772C14.0052 17.5573 13.0668 17.4649 12.2141 17.1116C11.3613 16.7584 10.6324 16.1602 10.1196 15.3928C9.60684 14.6253 9.33313 13.723 9.33313 12.8C9.33445 11.5627 9.82656 10.3764 10.7015 9.50148C11.5764 8.62656 12.7627 8.13445 14 8.13312ZM14 5.8C12.6155 5.8 11.2622 6.21054 10.111 6.97971C8.95987 7.74888 8.06266 8.84213 7.53285 10.1212C7.00303 11.4003 6.86441 12.8078 7.13451 14.1656C7.4046 15.5235 8.07129 16.7708 9.05026 17.7497C10.0292 18.7287 11.2765 19.3954 12.6344 19.6655C13.9922 19.9356 15.3997 19.797 16.6788 19.2672C17.9579 18.7373 19.0511 17.8401 19.8203 16.689C20.5895 15.5378 21 14.1845 21 12.8C21 10.9435 20.2625 9.163 18.9497 7.85025C17.637 6.5375 15.8565 5.8 14 5.8Z" fill="#F0A500"/>
</svg>
