<svg width="135" height="60" viewBox="0 0 135 60" fill="none" xmlns="http://www.w3.org/2000/svg">
<path d="M0.876232 60C5.69551 38.4146 22.782 15 35.0493 0L32.8587 1.09756C22.3439 9.87805 2.62869 40.9756 0 57.8049L0.876232 60Z" fill="#4A3933"/>
<path d="M19.3882 27.2456H26.5781L24.1733 35.4121C23.9943 36.0387 23.9048 36.4538 23.9048 36.6572C23.9048 36.9339 24.0228 37.0723 24.2588 37.0723C24.4622 37.0723 24.6779 36.9583 24.9058 36.7305C25.1418 36.4945 25.4917 36.055 25.9556 35.4121L26.3706 35.6807C25.7114 36.584 25.1255 37.2472 24.6128 37.6704C24.1001 38.0854 23.5589 38.293 22.9893 38.293C22.2894 38.293 21.9395 37.9349 21.9395 37.2188C21.9395 36.8525 22.1063 36.1079 22.4399 34.9849L24.5029 27.978H23.0381C22.444 27.978 22.0697 28.0146 21.915 28.0879C21.7686 28.153 21.6343 28.3239 21.5122 28.6006C21.3983 28.8773 21.1745 29.5731 20.8408 30.688C19.8805 33.8781 19.1115 35.9451 18.5337 36.8892C17.964 37.825 17.3048 38.293 16.5562 38.293C15.7505 38.293 15.3477 37.9756 15.3477 37.3408C15.3477 37.0804 15.429 36.8607 15.5918 36.6816C15.7464 36.4945 15.9539 36.4009 16.2144 36.4009C16.4585 36.4009 16.7148 36.5107 16.9834 36.7305C17.1543 36.8688 17.3089 36.938 17.4473 36.938C17.6914 36.938 17.9559 36.7264 18.2407 36.3032C18.5337 35.88 19.0342 34.5739 19.7422 32.3848C20.4502 30.1956 20.8042 28.9342 20.8042 28.6006C20.8042 28.0798 20.2915 27.7827 19.2661 27.7095L19.3882 27.2456Z" fill="#4A3933"/>
<path d="M39.1392 27.2456L37.0151 34.521C36.6978 35.6034 36.5391 36.2869 36.5391 36.5718C36.5391 36.7183 36.5635 36.8281 36.6123 36.9014C36.6693 36.9665 36.7425 36.999 36.832 36.999C36.9704 36.999 37.1209 36.938 37.2837 36.8159C37.4546 36.6857 37.8778 36.1812 38.5532 35.3022L38.9194 35.583C38.2765 36.6003 37.6174 37.349 36.9419 37.8291C36.4943 38.1383 36.063 38.293 35.6479 38.293C35.3306 38.293 35.0824 38.2034 34.9033 38.0244C34.7243 37.8454 34.6348 37.6134 34.6348 37.3286C34.6348 37.0519 34.6877 36.6857 34.7935 36.23C34.9237 35.6278 35.2939 34.3175 35.9043 32.2993C34.5208 34.5698 33.3612 36.1364 32.4253 36.999C31.4976 37.8617 30.6349 38.293 29.8374 38.293C29.4631 38.293 29.1457 38.1628 28.8853 37.9023C28.6248 37.6419 28.4946 37.3123 28.4946 36.9136C28.4946 36.3032 28.6737 35.3674 29.0317 34.106L30.0938 30.334C30.3542 29.4307 30.4844 28.8691 30.4844 28.6494C30.4844 28.5518 30.4478 28.4704 30.3745 28.4053C30.3094 28.332 30.2362 28.2954 30.1548 28.2954C29.9839 28.2954 29.813 28.3564 29.6421 28.4785C29.4712 28.6006 29.0846 29.0522 28.4824 29.8335L28.104 29.5649C28.7144 28.6209 29.3613 27.9251 30.0449 27.4775C30.5658 27.1276 31.0459 26.9526 31.4854 26.9526C31.7865 26.9526 32.0306 27.0503 32.2178 27.2456C32.4131 27.4328 32.5107 27.6769 32.5107 27.978C32.5107 28.4175 32.348 29.2028 32.0225 30.334L30.875 34.2769C30.5576 35.3511 30.3989 36.0306 30.3989 36.3154C30.3989 36.4701 30.4478 36.5962 30.5454 36.6938C30.6512 36.7834 30.7896 36.8281 30.9604 36.8281C31.229 36.8281 31.5789 36.6938 32.0103 36.4253C32.4416 36.1567 33.0153 35.5627 33.7314 34.6431C34.4557 33.7153 35.0498 32.8486 35.5137 32.043C35.9857 31.2292 36.4862 29.9393 37.0151 28.1733L37.2837 27.2456H39.1392Z" fill="#4A3933"/>
<path d="M41.2144 27.7095L44.9619 26.9526H45.4014L43.9487 32.0674H48.1602L49.5518 27.2456H51.4316L48.978 35.6685C48.8478 36.1323 48.7827 36.4294 48.7827 36.5596C48.7827 36.763 48.8722 36.8647 49.0513 36.8647C49.4093 36.8647 50.0075 36.3276 50.8457 35.2534L51.2607 35.4731C49.9668 37.353 48.8153 38.293 47.8062 38.293C47.1714 38.293 46.854 37.9146 46.854 37.1577C46.854 36.7834 47.0086 36.0591 47.3179 34.9849L47.9893 32.6777H43.7656L42.2153 38H40.3721L42.7402 29.8701C42.9193 29.2516 43.0088 28.8569 43.0088 28.686C43.0088 28.2466 42.7362 28.0269 42.1909 28.0269C42.0607 28.0269 41.7352 28.0553 41.2144 28.1123V27.7095Z" fill="#4A3933"/>
<path d="M64.0415 27.2456L61.9175 34.521C61.6001 35.6034 61.4414 36.2869 61.4414 36.5718C61.4414 36.7183 61.4658 36.8281 61.5146 36.9014C61.5716 36.9665 61.6449 36.999 61.7344 36.999C61.8727 36.999 62.0233 36.938 62.186 36.8159C62.3569 36.6857 62.7801 36.1812 63.4556 35.3022L63.8218 35.583C63.1789 36.6003 62.5197 37.349 61.8442 37.8291C61.3966 38.1383 60.9653 38.293 60.5503 38.293C60.2329 38.293 59.9847 38.2034 59.8057 38.0244C59.6266 37.8454 59.5371 37.6134 59.5371 37.3286C59.5371 37.0519 59.59 36.6857 59.6958 36.23C59.826 35.6278 60.1963 34.3175 60.8066 32.2993C59.4232 34.5698 58.2635 36.1364 57.3276 36.999C56.3999 37.8617 55.5373 38.293 54.7397 38.293C54.3654 38.293 54.048 38.1628 53.7876 37.9023C53.5272 37.6419 53.397 37.3123 53.397 36.9136C53.397 36.3032 53.576 35.3674 53.9341 34.106L54.9961 30.334C55.2565 29.4307 55.3867 28.8691 55.3867 28.6494C55.3867 28.5518 55.3501 28.4704 55.2769 28.4053C55.2118 28.332 55.1385 28.2954 55.0571 28.2954C54.8862 28.2954 54.7153 28.3564 54.5444 28.4785C54.3735 28.6006 53.987 29.0522 53.3848 29.8335L53.0063 29.5649C53.6167 28.6209 54.2637 27.9251 54.9473 27.4775C55.4681 27.1276 55.9482 26.9526 56.3877 26.9526C56.6888 26.9526 56.9329 27.0503 57.1201 27.2456C57.3154 27.4328 57.4131 27.6769 57.4131 27.978C57.4131 28.4175 57.2503 29.2028 56.9248 30.334L55.7773 34.2769C55.46 35.3511 55.3013 36.0306 55.3013 36.3154C55.3013 36.4701 55.3501 36.5962 55.4478 36.6938C55.5535 36.7834 55.6919 36.8281 55.8628 36.8281C56.1313 36.8281 56.4813 36.6938 56.9126 36.4253C57.3439 36.1567 57.9176 35.5627 58.6338 34.6431C59.3581 33.7153 59.9521 32.8486 60.416 32.043C60.888 31.2292 61.3885 29.9393 61.9175 28.1733L62.186 27.2456H64.0415Z" fill="#4A3933"/>
<path d="M75.6138 26.9526L73.0625 36.0469C72.9893 36.3154 72.9526 36.5026 72.9526 36.6084C72.9526 36.8688 73.0666 36.999 73.2944 36.999C73.7013 36.999 74.3402 36.4375 75.2109 35.3145L75.6138 35.5952C74.3768 37.3937 73.1642 38.293 71.9761 38.293C71.618 38.293 71.3494 38.1953 71.1704 38C70.9914 37.7966 70.9019 37.5728 70.9019 37.3286C70.9019 37.0926 71.0036 36.6247 71.207 35.9248L72.1104 32.6899C71.8744 32.6655 71.7116 32.6533 71.6221 32.6533C71.2477 32.6533 70.9181 32.7673 70.6333 32.9951C70.3485 33.223 69.8398 33.7601 69.1074 34.6064L66.1777 38H63.2603L63.3823 37.5483C63.7892 37.5158 64.1961 37.3612 64.603 37.0845C65.0099 36.8078 65.5755 36.2259 66.2998 35.3389C67.8053 33.4915 68.8104 32.5109 69.3149 32.397C67.5409 32.1284 66.6538 31.335 66.6538 30.0166C66.6538 29.2028 67.0526 28.4907 67.8501 27.8804C68.6558 27.2619 69.966 26.9526 71.7808 26.9526H75.6138ZM72.2935 32.043L73.5264 27.7095C73.0951 27.6037 72.6271 27.5508 72.1226 27.5508C70.9263 27.5508 70.0596 27.8478 69.5225 28.4419C68.9854 29.0278 68.7168 29.6504 68.7168 30.3096C68.7168 31.4814 69.6445 32.0674 71.5 32.0674C71.7279 32.0674 71.9923 32.0592 72.2935 32.043Z" fill="#4A3933"/>
<path d="M86.3071 21.8989L86.4536 21.4473H91.7393C93.9772 21.4473 95.6333 21.7036 96.7075 22.2163C97.7899 22.729 98.6525 23.5387 99.2954 24.6455C99.9383 25.7441 100.26 26.9242 100.26 28.1855C100.26 29.2679 100.073 30.3218 99.6982 31.3472C99.332 32.3644 98.9129 33.1823 98.4409 33.8008C97.9771 34.4111 97.2609 35.0866 96.2925 35.8271C95.3241 36.5677 94.2743 37.117 93.1431 37.4751C92.0119 37.825 90.5999 38 88.9072 38H81.9004L82.0591 37.5483C82.702 37.5321 83.1333 37.4751 83.353 37.3774C83.6786 37.2391 83.9186 37.0519 84.0732 36.8159C84.3092 36.4741 84.5737 35.7865 84.8667 34.7529L87.7964 24.7432C88.0243 23.9538 88.1382 23.3353 88.1382 22.8877C88.1382 22.5703 88.0324 22.3262 87.8208 22.1553C87.6092 21.9844 87.1942 21.8989 86.5757 21.8989H86.3071ZM90.6406 22.3628L87.0518 34.7529C86.7832 35.6807 86.6489 36.2544 86.6489 36.4741C86.6489 36.6043 86.6896 36.7305 86.771 36.8525C86.8605 36.9746 86.9785 37.056 87.125 37.0967C87.3366 37.1699 87.6784 37.2065 88.1504 37.2065C89.4281 37.2065 90.6121 37.0763 91.7026 36.8159C92.8013 36.5474 93.7005 36.1527 94.4004 35.6318C95.3932 34.875 96.1867 33.8333 96.7808 32.5068C97.3748 31.1803 97.6719 29.6707 97.6719 27.978C97.6719 26.0656 97.2161 24.6455 96.3047 23.7178C95.3932 22.7819 94.0627 22.314 92.313 22.314C91.8817 22.314 91.3242 22.3302 90.6406 22.3628Z" fill="#4A3933"/>
<path d="M103.69 33.3979C103.633 33.8049 103.604 34.1426 103.604 34.4111C103.604 35.1354 103.861 35.7539 104.374 36.2666C104.886 36.7712 105.509 37.0234 106.241 37.0234C106.827 37.0234 107.389 36.9054 107.926 36.6694C108.471 36.4253 109.277 35.8923 110.343 35.0703L110.599 35.4243C108.67 37.3368 106.831 38.293 105.082 38.293C103.893 38.293 102.998 37.9186 102.396 37.1699C101.794 36.4212 101.493 35.5952 101.493 34.6919C101.493 33.4793 101.867 32.2383 102.616 30.9688C103.364 29.6992 104.304 28.7145 105.436 28.0146C106.567 27.3066 107.73 26.9526 108.927 26.9526C109.789 26.9526 110.428 27.1276 110.843 27.4775C111.258 27.8275 111.466 28.2425 111.466 28.7227C111.466 29.3981 111.197 30.0451 110.66 30.6636C109.952 31.4692 108.91 32.1203 107.535 32.6167C106.624 32.9504 105.342 33.2108 103.69 33.3979ZM103.775 32.7998C104.98 32.6615 105.96 32.4255 106.717 32.0918C107.718 31.6442 108.467 31.1112 108.963 30.4927C109.468 29.866 109.72 29.272 109.72 28.7104C109.72 28.3687 109.61 28.092 109.391 27.8804C109.179 27.6688 108.874 27.563 108.475 27.563C107.645 27.563 106.762 28.0065 105.826 28.8936C104.898 29.7725 104.215 31.0745 103.775 32.7998Z" fill="#4A3933"/>
<path d="M121.476 35.3389C120.629 36.3561 119.775 37.1048 118.912 37.585C118.049 38.057 117.138 38.293 116.178 38.293C115.022 38.293 114.119 37.9674 113.468 37.3164C112.825 36.6654 112.503 35.7905 112.503 34.6919C112.503 33.4468 112.849 32.222 113.541 31.0176C114.241 29.8132 115.177 28.8366 116.349 28.0879C117.529 27.3311 118.684 26.9526 119.815 26.9526C120.702 26.9526 121.366 27.1398 121.805 27.5142C122.245 27.8804 122.464 28.332 122.464 28.8691C122.464 29.3737 122.31 29.805 122 30.1631C121.773 30.4398 121.492 30.5781 121.158 30.5781C120.906 30.5781 120.694 30.4967 120.523 30.334C120.361 30.1712 120.279 29.9678 120.279 29.7236C120.279 29.569 120.308 29.4266 120.365 29.2964C120.43 29.1662 120.556 29.0116 120.743 28.8325C120.938 28.6453 121.056 28.5111 121.097 28.4297C121.138 28.3483 121.158 28.2629 121.158 28.1733C121.158 28.0024 121.081 27.86 120.926 27.7461C120.69 27.5833 120.357 27.502 119.925 27.502C119.128 27.502 118.338 27.7827 117.557 28.3442C116.776 28.9058 116.109 29.7033 115.555 30.7368C114.888 31.9901 114.554 33.2433 114.554 34.4966C114.554 35.3267 114.79 35.9858 115.262 36.4741C115.734 36.9543 116.377 37.1943 117.191 37.1943C117.818 37.1943 118.436 37.0397 119.046 36.7305C119.665 36.4131 120.357 35.8434 121.122 35.0215L121.476 35.3389Z" fill="#4A3933"/>
<path d="M134.488 30.7734C134.488 31.9941 134.163 33.2026 133.512 34.3989C132.869 35.5952 131.97 36.5433 130.814 37.2432C129.658 37.943 128.535 38.293 127.445 38.293C126.33 38.293 125.418 37.939 124.71 37.231C124.011 36.5148 123.661 35.5911 123.661 34.46C123.661 33.2637 124.002 32.0633 124.686 30.8589C125.378 29.6545 126.297 28.7023 127.445 28.0024C128.6 27.3026 129.715 26.9526 130.79 26.9526C131.864 26.9526 132.747 27.3066 133.438 28.0146C134.138 28.7227 134.488 29.6423 134.488 30.7734ZM132.462 29.9312C132.462 29.1743 132.275 28.5965 131.9 28.1978C131.534 27.7909 131.058 27.5874 130.472 27.5874C129.276 27.5874 128.173 28.446 127.164 30.1631C126.163 31.8721 125.663 33.5729 125.663 35.2656C125.663 36.0387 125.858 36.6369 126.249 37.0601C126.639 37.4751 127.132 37.6826 127.726 37.6826C128.873 37.6826 129.947 36.8322 130.948 35.1313C131.957 33.4224 132.462 31.689 132.462 29.9312Z" fill="#4A3933"/>
</svg>
