<svg width="19" height="19" viewBox="0 0 19 19" fill="none" xmlns="http://www.w3.org/2000/svg">
<path fill-rule="evenodd" clip-rule="evenodd" d="M15.403 3.07501C14.5714 2.2379 13.5819 1.57413 12.4919 1.12216C11.4019 0.670197 10.233 0.439016 9.053 0.442015C4.105 0.442015 0.077 4.46902 0.075 9.41901C0.075 11.001 0.488 12.545 1.273 13.907L0 18.558L4.759 17.309C6.07539 18.0256 7.5502 18.4014 9.049 18.402H9.053C14 18.402 18.028 14.375 18.03 9.42501C18.0334 8.2455 17.803 7.07701 17.3521 5.98707C16.9012 4.89714 16.2387 3.90739 15.403 3.07501ZM9.053 16.887H9.05C7.71352 16.8872 6.40163 16.5276 5.252 15.846L4.98 15.684L2.156 16.425L2.909 13.672L2.732 13.39C1.98479 12.2004 1.58923 10.8238 1.591 9.41901C1.593 5.30502 4.94 1.95801 9.056 1.95801C10.0363 1.95584 11.0072 2.1481 11.9127 2.52367C12.8181 2.89924 13.6401 3.45066 14.331 4.14601C15.0256 4.83806 15.5762 5.66091 15.9509 6.56701C16.3256 7.47312 16.517 8.4445 16.514 9.42501C16.512 13.539 13.165 16.887 9.053 16.887ZM13.146 11.298C12.921 11.185 11.819 10.643 11.613 10.568C11.408 10.493 11.259 10.456 11.109 10.68C10.959 10.904 10.529 11.409 10.398 11.559C10.267 11.709 10.136 11.727 9.912 11.615C9.688 11.503 8.965 11.266 8.108 10.502C7.441 9.90702 6.991 9.17301 6.86 8.94801C6.729 8.72301 6.846 8.60202 6.959 8.49002C7.06 8.39002 7.183 8.22801 7.295 8.09701C7.407 7.96601 7.444 7.87301 7.519 7.72301C7.594 7.57301 7.557 7.44201 7.5 7.33001C7.444 7.21701 6.995 6.11301 6.808 5.66401C6.627 5.22901 6.442 5.28701 6.304 5.28101C6.16108 5.27517 6.01804 5.2725 5.875 5.27301C5.76126 5.27591 5.64934 5.30228 5.54626 5.35046C5.44318 5.39865 5.35117 5.4676 5.276 5.55301C5.07 5.77801 4.491 6.32002 4.491 7.42402C4.491 8.52802 5.295 9.59502 5.407 9.74502C5.519 9.89502 6.989 12.16 9.239 13.132C9.775 13.363 10.193 13.501 10.518 13.605C11.055 13.776 11.544 13.751 11.931 13.694C12.362 13.63 13.258 13.152 13.445 12.628C13.632 12.104 13.632 11.655 13.576 11.561C13.52 11.467 13.369 11.41 13.146 11.298Z" fill="#4A3933"/>
</svg>
